<svg version="1.1" viewBox="0 0 512 512" xmlns="http://www.w3.org/2000/svg">
	<path d="m42.666016 49.777344c-23.555556 0-42.666016 19.112413-42.666016 42.667968v42.666018c0 15.73333 12.71198 28.44336 28.445312 28.44336h14.220704 42.667968v-71.109378c0-23.555554-19.112413-42.667968-42.667968-42.667968zm56.888672 0c8.888882 11.911111 14.222652 26.667968 14.222652 42.667968v270.22071c0 31.37777 25.5109 56.88867 56.88868 56.88867 31.37777 0 56.88867-25.5109 56.88867-56.88867v-4.71094c0-28.8 23.37773-52.17774 52.17773-52.17774h146.9336v-170.66601c0-47.111112-38.22093-85.333986-85.33204-85.333986h-241.77929zm166.44726 16h16.31055c36.03832 0 65.24609 29.20778 65.24609 65.246096v1.83594c0 22.22446-11.31632 42.86866-29.97265 54.89843l-21.50977 13.81446c-3.46621 2.24284-5.60742 6.11509-5.60742 10.29492v0.71484c0 9.02232-7.28822 16.31055-16.31055 16.31055-9.02232 0-16.3125-7.28823-16.3125-16.31055v-0.71484c0-15.24109 7.74842-29.46103 20.59375-37.71875l21.50977-13.81446c9.32816-5.96391 14.98633-16.31158 14.98633-27.42382v-1.83594c0-17.99367-14.62938-32.623048-32.62305-32.623048h-16.31055c-17.99366 0-32.62304 14.629378-32.62304 32.623048 0 9.02232-7.29018 16.3125-16.3125 16.3125s-16.31055-7.29018-16.31055-16.3125c0-36.038311 29.20778-65.245916 65.24609-65.296876zm8.15625 187.63477a20.389427 20.389427 0 1 1 0 40.77734 20.389427 20.389427 0 1 1 0-40.77734zm5.57422 80.81055c-13.06666 0-23.73242 10.57686-23.73242 23.73242v4.71094c0 47.11111-38.22287 85.33398-85.33398 85.33398h156.44531 85.33398c55.02223 0 99.55469-44.53246 99.55469-99.55469 0-7.82222-6.40044-14.22265-14.22266-14.22265h-218.04492z" fill="#22774a" stroke-width=".888889"/>
</svg>
